<svg width="216" height="104" viewBox="0 0 216 104" fill="none" xmlns="http://www.w3.org/2000/svg">
<path fill-rule="evenodd" clip-rule="evenodd" d="M81.2378 4.16662C79.5086 5.6562 78.3055 7.26036 77.9045 7.82287L76.2378 7.38016C76.1232 7.33328 75.9722 7.36453 75.8732 7.46349L73.4045 9.93224C73.3732 9.96349 73.3524 10.0052 73.3315 10.052C73.2534 10.2343 73.3524 10.4374 73.5243 10.5156L75.9045 11.4687C75.9826 11.5833 76.0659 11.7031 76.1649 11.8437C75.9357 12.0416 75.7534 12.1927 75.7326 12.2135C75.5347 12.3854 75.3211 12.5468 75.0815 12.7083C75.1024 12.6874 75.1388 12.677 75.1597 12.6562C73.9461 11.5937 72.6076 10.6979 71.1545 9.98432C71.1545 9.94266 71.1649 9.91141 71.1649 9.86453C71.1649 9.68224 71.0815 9.52078 70.9513 9.42182C71.8263 7.63537 72.993 6.02599 74.3784 4.64057C74.6805 4.32807 75.0086 4.03641 75.342 3.74474C75.2795 3.75516 78.4045 3.08328 81.2378 4.16662ZM70.8732 10.0729L70.8628 10.0833V10.0937C70.8003 10.1562 70.7013 10.2135 70.6024 10.2135C70.4097 10.2135 70.2482 10.0624 70.2482 9.86453C70.2482 9.8437 70.2586 9.83328 70.2586 9.81245C70.269 9.73432 70.3003 9.67182 70.3576 9.61453C70.4097 9.55203 70.5086 9.51037 70.6024 9.51037C70.7899 9.51037 70.9513 9.66141 70.9513 9.86453C70.9513 9.93224 70.9305 10.0052 70.8732 10.0729ZM71.0607 10.1927C72.4774 10.8802 73.7951 11.7604 74.9722 12.7864C73.394 13.8333 71.1545 14.5364 69.4565 13.7812L69.4774 13.7916C69.7065 12.6249 70.0555 11.4895 70.5086 10.4166C70.5399 10.427 70.5711 10.427 70.6024 10.427C70.7899 10.427 70.9618 10.3333 71.0607 10.1927ZM70.3003 10.3437C69.8576 11.4114 69.5138 12.526 69.2743 13.6927C68.9826 13.5416 68.7118 13.3489 68.4618 13.0989C68.0086 12.6458 67.717 12.1041 67.5972 11.5208C67.7795 10.6666 68.0868 9.83328 68.4826 9.06766L68.4409 9.15099C68.993 9.31245 69.5243 9.51037 70.0555 9.72391C70.0399 9.77078 70.0295 9.81245 70.0295 9.86453C70.0295 10.0624 70.1388 10.2447 70.3003 10.3437ZM70.1388 9.5312C69.618 9.31245 69.0815 9.11974 68.5399 8.94787L68.519 8.99995C69.7847 6.56766 72.0243 4.64057 74.8888 3.86453C74.6597 4.05724 74.4357 4.27078 74.2274 4.48953C72.8211 5.88536 71.644 7.52078 70.769 9.31245C70.7118 9.30203 70.6597 9.29162 70.6024 9.29162C70.4097 9.29162 70.2482 9.39057 70.1388 9.5312ZM87.1753 10.177C87.2847 10.4739 87.3732 10.7656 87.4565 11.0677C87.967 12.9583 87.8993 14.8749 87.3732 16.6249C85.5086 18.3593 83.2795 19.6979 80.8055 20.5104C80.7065 20.3593 80.5347 20.2604 80.3315 20.2604C80.3159 20.2604 80.3055 20.2604 80.2951 20.2604C79.8211 18.9062 79.1909 17.6406 78.4253 16.4635L78.4149 16.4739C78.6284 16.151 78.8576 15.8385 79.0868 15.5677C79.1388 15.4999 79.1909 15.427 79.2274 15.3489C79.2378 15.3072 79.2899 15.2083 79.3784 15.0885C79.5711 15.2395 79.743 15.3697 79.9097 15.4687L80.8472 17.8177C80.868 17.8697 80.9045 17.9218 80.9461 17.9687C81.0763 18.1093 81.3003 18.1093 81.4409 17.9687L83.9097 15.4999C83.9982 15.4166 84.0399 15.2864 84.0086 15.1562L83.5503 13.4687C84.1024 13.0781 85.6857 11.901 87.1753 10.177ZM80.6857 20.8229C80.6857 21.0156 80.5243 21.1666 80.3315 21.1666C80.1024 21.1666 79.9618 20.9635 79.993 20.7708V20.7604C80.0243 20.5833 80.1649 20.4791 80.3315 20.4791H80.3628C80.5451 20.4895 80.6857 20.651 80.6857 20.8229ZM80.894 20.7135C83.2586 19.927 85.4149 18.6718 87.243 17.0364C86.2326 19.9374 83.9409 22.3489 80.894 23.3854L81.0763 23.3229C80.967 22.6406 80.8159 21.9687 80.6232 21.3072C80.7951 21.2135 80.9045 21.026 80.9045 20.8229C80.9045 20.7812 80.894 20.7447 80.894 20.7135ZM80.4149 21.3854C80.6128 22.0364 80.7638 22.7135 80.868 23.3958C80.5347 23.5052 80.2013 23.6041 79.8524 23.6875C79.2378 23.5729 78.6649 23.302 78.1961 22.8333C77.8107 22.4479 77.5503 21.9895 77.3888 21.4947C78.2065 21.3958 79.019 21.2447 79.8107 21.0416C79.894 21.2447 80.1024 21.3854 80.3315 21.3854C80.3628 21.3854 80.394 21.3854 80.4149 21.3854ZM79.769 20.8229C78.9774 21.026 78.1545 21.1927 77.3211 21.2864H77.3315C76.9305 19.7395 77.5295 17.8906 78.4045 16.4947C78.3732 16.552 78.3368 16.6041 78.3055 16.6562C79.0295 17.8072 79.6284 19.026 80.0815 20.3125C79.894 20.4114 79.769 20.5937 79.769 20.8229Z" fill="#267DFF"/>
<mask id="mask0_75_366" style="mask-type:luminance" maskUnits="userSpaceOnUse" x="63" y="0" width="29" height="28">
<path d="M63.9253 0H91.3003V27.3542H63.9253V0Z" fill="white"/>
</mask>
<g mask="url(#mask0_75_366)">
<path fill-rule="evenodd" clip-rule="evenodd" d="M82.243 3.35417C82.1805 3.32292 82.1128 3.30208 82.0503 3.26562C79.7013 2.26042 77.1076 2.07812 74.6388 2.73958C70.8211 3.76562 67.9878 6.60938 66.8055 10.1042C66.5034 11.3281 66.9618 12.6979 67.9097 13.651C68.7118 14.4427 69.7274 14.8281 70.842 14.8646H70.8628C70.9513 14.875 71.0399 14.875 71.1128 14.875H71.144C73.2118 14.8281 75.1284 13.8021 76.6076 12.4271H76.618L76.6284 12.4167C76.9565 12.8073 77.342 13.2292 77.743 13.6302C78.1336 14.0208 78.5347 14.3854 78.9097 14.7135L78.8993 14.7344C77.2222 16.3229 76.1128 18.7813 76.4982 21.1042C77.0711 24.3594 80.2534 25.2917 83.2586 23.5573L83.2951 23.5365C84.3107 22.9531 85.1545 22.2604 85.9409 21.4062H85.9513C87.1232 20.1302 87.9982 18.5729 88.4826 16.9062L88.4982 16.8854C89.2222 14.4219 89.0711 11.7813 88.0972 9.40104C88.0607 9.32292 88.0295 9.23958 87.9982 9.16146C88.5295 8.4375 88.993 7.68229 89.3836 6.86979C90.5503 8.88021 91.2222 11.2188 91.2222 13.7188C91.2222 21.2552 85.1232 27.3542 77.5815 27.3542C70.0555 27.3542 63.9409 21.2552 63.9409 13.7188C63.9409 6.1875 70.0555 0.078125 77.5815 0.078125C80.1232 0.078125 82.5034 0.770833 84.5347 1.97917C83.7274 2.35937 82.967 2.82292 82.243 3.35417ZM84.3732 7C84.7951 7.41146 84.7951 8.08333 84.3732 8.48958C83.9618 8.90104 83.2951 8.90104 82.8836 8.48958C82.4722 8.08333 82.4722 7.41146 82.8836 7C83.2951 6.58854 83.9618 6.58854 84.3732 7ZM74.2951 10.0521L76.2847 10.849C76.3472 10.8802 76.4149 10.9375 76.4565 11C76.7482 11.5208 77.4722 12.3437 78.2534 13.1198C79.0295 13.901 79.8524 14.625 80.3732 14.9167C80.4357 14.9583 80.493 15.0156 80.5243 15.0885L81.3263 17.0781L83.2586 15.1458L82.8055 13.4115C82.7638 13.2708 82.8159 13.1094 82.9461 13.026C82.9565 13.0156 86.8732 10.4375 88.6805 6.6875C89.0451 5.92708 89.3159 5.13021 89.4565 4.28646C89.5868 3.52604 89.5972 2.73958 89.4565 1.92708C88.6493 1.77604 87.8472 1.78646 87.092 1.91667C86.2586 2.05729 85.4461 2.33854 84.6857 2.69271C81.0972 4.42708 78.5763 8.10417 78.3732 8.40625C78.2847 8.54687 78.1232 8.61979 77.9618 8.57812L76.2378 8.11458L74.2951 10.0521ZM84.8732 6.5C85.5659 7.18229 85.5659 8.29688 84.8732 8.98958C84.1909 9.67188 83.0763 9.67188 82.3836 8.98958C81.7013 8.29688 81.7013 7.18229 82.3836 6.5C83.0763 5.81771 84.1909 5.81771 84.8732 6.5Z" fill="white"/>
</g>
<path fill-rule="evenodd" clip-rule="evenodd" d="M74.2949 10.0521L76.2845 10.8489C76.3158 10.8594 76.3366 10.8802 76.3678 10.9062L78.2741 8.5156C78.1855 8.5781 78.0814 8.60935 77.9616 8.5781L76.2376 8.11456L74.2949 10.0521ZM80.4564 14.9948C80.4928 15.026 80.5137 15.0573 80.5241 15.0885L81.3262 17.0781L83.2585 15.1458L82.8053 13.4114C82.7637 13.2969 82.8053 13.1562 82.9043 13.0573L80.4564 14.9948Z" fill="white"/>
<g filter="url(#filter0_d_75_366)">
<path d="M21.2656 40.8946C19.6771 40.4779 18.2135 40.3217 16.849 40.3217C9.94792 40.3217 5.43229 44.0092 5.43229 51.7331V56.2175H3.30208C2.44792 56.2175 2 56.6914 2 57.5196V61.5873C2 62.4467 2.44792 62.8946 3.30208 62.8946H5.43229V88.5821C5.43229 89.4414 5.91146 89.8842 6.73958 89.8842H12.3333C13.1927 89.8842 13.6354 89.4414 13.6354 88.5821V62.8946H18.3125C19.1354 62.8946 19.6146 62.4467 19.6146 61.5873V57.5196C19.6146 56.6914 19.1354 56.2175 18.3125 56.2175H13.6354V51.0664C13.6354 48.1706 15.224 46.8998 17.5781 46.8998C18.2135 46.8998 18.9479 46.9987 19.7396 47.2487C20.5052 47.4414 21.0417 47.1237 21.2656 46.3269L22.125 42.5144C22.3177 41.6862 22.0625 41.1446 21.2656 40.8946Z" fill="white"/>
</g>
<g filter="url(#filter1_d_75_366)">
<path d="M46.5108 41.0509C45.7764 39.3999 44.4118 39.3999 43.6462 41.0509L22.5993 88.3582C22.1879 89.2801 22.5993 89.8842 23.5577 89.8842H30.5837C31.2816 89.8842 31.8233 89.5665 32.0733 88.8686L34.8389 81.9988H55.3493L58.115 88.8686C58.3702 89.5665 58.9066 89.8842 59.6098 89.8842H66.5993C67.5889 89.8842 67.9691 89.2801 67.5889 88.3582L46.5108 41.0509ZM45.1098 56.5978L52.4535 74.8478H37.7348L45.1098 56.5978Z" fill="white"/>
</g>
<g filter="url(#filter2_d_75_366)">
<path d="M81.1312 89.8842C81.9906 89.8842 82.4333 89.4415 82.4333 88.5822V42.353C82.4333 41.4988 81.9906 41.0509 81.1312 41.0509H74.8031C73.9437 41.0509 73.501 41.4988 73.501 42.353V88.5822C73.501 89.4415 73.9437 89.8842 74.8031 89.8842H81.1312Z" fill="white"/>
</g>
<path d="M93.4149 30.002H209.436C210.619 30.002 211.751 30.4703 212.582 31.3016C213.414 32.134 213.882 33.2612 213.882 34.4374V98.328C213.882 99.5051 213.414 100.637 212.583 101.468C211.749 102.297 210.616 102.769 209.436 102.769H93.4149C90.9571 102.769 88.969 100.779 88.969 98.328V34.4374C88.969 31.9922 90.9564 30.002 93.4149 30.002Z" stroke="#267DFF" stroke-width="2.4"/>
<g filter="url(#filter3_d_75_366)">
<path d="M106.352 87.504C107.696 87.504 109.149 87.4207 110.707 86.8842C111.352 86.6447 111.597 86.103 111.378 85.4624L110.441 82.0769C110.222 81.4051 109.769 81.1603 109.04 81.3738C108.368 81.5926 107.696 81.6707 107.186 81.6707C105.441 81.6707 104.342 80.7019 104.342 78.4207V46.7124C104.342 45.9884 103.962 45.6134 103.238 45.6134H98.5086C97.7847 45.6134 97.4097 45.9884 97.4097 46.7124V79.228C97.4097 84.5978 101.087 87.504 106.352 87.504Z" fill="white"/>
</g>
<g filter="url(#filter4_d_75_366)">
<path d="M129.406 57.8373C121.291 57.8373 115.161 63.6706 115.161 72.6706C115.161 81.78 121.718 87.5039 129.703 87.5039C134.026 87.5039 138.244 85.6758 141.416 82.3425C141.979 81.78 141.979 81.2435 141.442 80.8373L138.807 77.9362C138.297 77.5352 137.896 77.5612 137.385 78.0456C135.26 80.2227 132.521 81.3737 129.89 81.3737C125.75 81.3737 122.125 78.6081 121.937 73.6394H142.166C142.948 73.6394 143.349 73.3685 143.349 72.3998C143.349 63.6706 137.521 57.8373 129.406 57.8373ZM129.541 63.5612C132.468 63.5612 135.317 65.1446 136.151 68.7748H122.416C123.437 65.1185 126.692 63.5612 129.541 63.5612Z" fill="white"/>
</g>
<g filter="url(#filter5_d_75_366)">
<path d="M160.164 57.8373C157.018 57.8373 153.632 58.431 150.434 59.4779C149.763 59.7175 149.497 60.1758 149.736 60.8737L150.867 64.4206C151.08 65.1185 151.565 65.306 152.263 65.0664C154.736 64.1498 157.315 63.5612 159.544 63.5612C162.877 63.5612 165.403 64.8789 165.403 68.5612V70.3581C163.361 69.8477 161.346 69.5821 159.434 69.5821C153.044 69.5821 148.07 72.6446 148.07 78.7696C148.07 84.681 152.585 87.5039 157.638 87.5039C160.7 87.5039 164.111 86.4831 166.398 83.3894L167.07 85.9154C167.2 86.5873 167.632 86.8842 168.278 86.8842H171.231C171.96 86.8842 172.335 86.5092 172.335 85.78V68.2644C172.335 60.6602 166.851 57.8373 160.164 57.8373ZM159.304 82.4519C156.992 82.4519 155.002 81.2696 155.002 78.6602C155.002 75.655 157.611 74.4727 161.049 74.4727C162.445 74.4727 163.898 74.6602 165.403 75.0092V76.2175C165.403 80.8946 161.856 82.4519 159.304 82.4519Z" fill="white"/>
</g>
<g filter="url(#filter6_d_75_366)">
<path d="M194.818 57.8373C191.646 57.8373 188.235 59.0717 185.386 61.8685L184.74 59.3946C184.578 58.7227 184.151 58.431 183.532 58.431H180.547C179.849 58.431 179.448 58.8321 179.448 59.53V85.78C179.448 86.5092 179.849 86.8842 180.547 86.8842H185.276C186.006 86.8842 186.381 86.5092 186.381 85.78V70.4675C186.381 66.4102 189.203 63.9362 192.693 63.9362C196.266 63.9362 198.417 66.5717 198.417 70.306V85.78C198.417 86.5092 198.792 86.8842 199.521 86.8842H204.25C204.948 86.8842 205.349 86.5092 205.349 85.78V69.3112C205.349 63.7227 202.584 57.8373 194.818 57.8373Z" fill="white"/>
</g>
<defs>
<filter id="filter0_d_75_366" x="0" y="40.3217" width="24.186" height="53.5625" filterUnits="userSpaceOnUse" color-interpolation-filters="sRGB">
<feFlood flood-opacity="0" result="BackgroundImageFix"/>
<feColorMatrix in="SourceAlpha" type="matrix" values="0 0 0 0 0 0 0 0 0 0 0 0 0 0 0 0 0 0 127 0" result="hardAlpha"/>
<feOffset dy="2"/>
<feGaussianBlur stdDeviation="1"/>
<feComposite in2="hardAlpha" operator="out"/>
<feColorMatrix type="matrix" values="0 0 0 0 0 0 0 0 0 0 0 0 0 0 0 0 0 0 0.15 0"/>
<feBlend mode="normal" in2="BackgroundImageFix" result="effect1_dropShadow_75_366"/>
<feBlend mode="normal" in="SourceGraphic" in2="effect1_dropShadow_75_366" result="shape"/>
</filter>
<filter id="filter1_d_75_366" x="20.4404" y="39.8126" width="49.2935" height="54.0717" filterUnits="userSpaceOnUse" color-interpolation-filters="sRGB">
<feFlood flood-opacity="0" result="BackgroundImageFix"/>
<feColorMatrix in="SourceAlpha" type="matrix" values="0 0 0 0 0 0 0 0 0 0 0 0 0 0 0 0 0 0 127 0" result="hardAlpha"/>
<feOffset dy="2"/>
<feGaussianBlur stdDeviation="1"/>
<feComposite in2="hardAlpha" operator="out"/>
<feColorMatrix type="matrix" values="0 0 0 0 0 0 0 0 0 0 0 0 0 0 0 0 0 0 0.15 0"/>
<feBlend mode="normal" in2="BackgroundImageFix" result="effect1_dropShadow_75_366"/>
<feBlend mode="normal" in="SourceGraphic" in2="effect1_dropShadow_75_366" result="shape"/>
</filter>
<filter id="filter2_d_75_366" x="71.501" y="41.0509" width="12.9321" height="52.8334" filterUnits="userSpaceOnUse" color-interpolation-filters="sRGB">
<feFlood flood-opacity="0" result="BackgroundImageFix"/>
<feColorMatrix in="SourceAlpha" type="matrix" values="0 0 0 0 0 0 0 0 0 0 0 0 0 0 0 0 0 0 127 0" result="hardAlpha"/>
<feOffset dy="2"/>
<feGaussianBlur stdDeviation="1"/>
<feComposite in2="hardAlpha" operator="out"/>
<feColorMatrix type="matrix" values="0 0 0 0 0 0 0 0 0 0 0 0 0 0 0 0 0 0 0.15 0"/>
<feBlend mode="normal" in2="BackgroundImageFix" result="effect1_dropShadow_75_366"/>
<feBlend mode="normal" in="SourceGraphic" in2="effect1_dropShadow_75_366" result="shape"/>
</filter>
<filter id="filter3_d_75_366" x="95.4097" y="45.6134" width="18.0469" height="45.8906" filterUnits="userSpaceOnUse" color-interpolation-filters="sRGB">
<feFlood flood-opacity="0" result="BackgroundImageFix"/>
<feColorMatrix in="SourceAlpha" type="matrix" values="0 0 0 0 0 0 0 0 0 0 0 0 0 0 0 0 0 0 127 0" result="hardAlpha"/>
<feOffset dy="2"/>
<feGaussianBlur stdDeviation="1"/>
<feComposite in2="hardAlpha" operator="out"/>
<feColorMatrix type="matrix" values="0 0 0 0 0 0 0 0 0 0 0 0 0 0 0 0 0 0 0.15 0"/>
<feBlend mode="normal" in2="BackgroundImageFix" result="effect1_dropShadow_75_366"/>
<feBlend mode="normal" in="SourceGraphic" in2="effect1_dropShadow_75_366" result="shape"/>
</filter>
<filter id="filter4_d_75_366" x="113.161" y="57.8373" width="32.1875" height="33.6666" filterUnits="userSpaceOnUse" color-interpolation-filters="sRGB">
<feFlood flood-opacity="0" result="BackgroundImageFix"/>
<feColorMatrix in="SourceAlpha" type="matrix" values="0 0 0 0 0 0 0 0 0 0 0 0 0 0 0 0 0 0 127 0" result="hardAlpha"/>
<feOffset dy="2"/>
<feGaussianBlur stdDeviation="1"/>
<feComposite in2="hardAlpha" operator="out"/>
<feColorMatrix type="matrix" values="0 0 0 0 0 0 0 0 0 0 0 0 0 0 0 0 0 0 0.15 0"/>
<feBlend mode="normal" in2="BackgroundImageFix" result="effect1_dropShadow_75_366"/>
<feBlend mode="normal" in="SourceGraphic" in2="effect1_dropShadow_75_366" result="shape"/>
</filter>
<filter id="filter5_d_75_366" x="146.07" y="57.8373" width="28.2656" height="33.6666" filterUnits="userSpaceOnUse" color-interpolation-filters="sRGB">
<feFlood flood-opacity="0" result="BackgroundImageFix"/>
<feColorMatrix in="SourceAlpha" type="matrix" values="0 0 0 0 0 0 0 0 0 0 0 0 0 0 0 0 0 0 127 0" result="hardAlpha"/>
<feOffset dy="2"/>
<feGaussianBlur stdDeviation="1"/>
<feComposite in2="hardAlpha" operator="out"/>
<feColorMatrix type="matrix" values="0 0 0 0 0 0 0 0 0 0 0 0 0 0 0 0 0 0 0.15 0"/>
<feBlend mode="normal" in2="BackgroundImageFix" result="effect1_dropShadow_75_366"/>
<feBlend mode="normal" in="SourceGraphic" in2="effect1_dropShadow_75_366" result="shape"/>
</filter>
<filter id="filter6_d_75_366" x="177.448" y="57.8373" width="29.9009" height="33.0469" filterUnits="userSpaceOnUse" color-interpolation-filters="sRGB">
<feFlood flood-opacity="0" result="BackgroundImageFix"/>
<feColorMatrix in="SourceAlpha" type="matrix" values="0 0 0 0 0 0 0 0 0 0 0 0 0 0 0 0 0 0 127 0" result="hardAlpha"/>
<feOffset dy="2"/>
<feGaussianBlur stdDeviation="1"/>
<feComposite in2="hardAlpha" operator="out"/>
<feColorMatrix type="matrix" values="0 0 0 0 0 0 0 0 0 0 0 0 0 0 0 0 0 0 0.15 0"/>
<feBlend mode="normal" in2="BackgroundImageFix" result="effect1_dropShadow_75_366"/>
<feBlend mode="normal" in="SourceGraphic" in2="effect1_dropShadow_75_366" result="shape"/>
</filter>
</defs>
</svg>
