<svg width="216" height="105" viewBox="0 0 216 105" fill="none" xmlns="http://www.w3.org/2000/svg">
<path fill-rule="evenodd" clip-rule="evenodd" d="M81.271 4.49999C79.5418 5.98957 78.3387 7.59374 77.9377 8.15624L76.271 7.71353C76.1564 7.66666 76.0054 7.69791 75.9064 7.79686L73.4377 10.2656C73.4064 10.2969 73.3856 10.3385 73.3647 10.3854C73.2866 10.5677 73.3856 10.7708 73.5575 10.8489L75.9377 11.8021C76.0158 11.9167 76.0991 12.0364 76.1981 12.1771C75.9689 12.375 75.7866 12.526 75.7658 12.5469C75.5679 12.7187 75.3543 12.8802 75.1147 13.0417C75.1356 13.0208 75.172 13.0104 75.1929 12.9896C73.9793 11.9271 72.6408 11.0312 71.1877 10.3177C71.1877 10.276 71.1981 10.2448 71.1981 10.1979C71.1981 10.0156 71.1147 9.85416 70.9845 9.7552C71.8595 7.96874 73.0262 6.35936 74.4116 4.97395C74.7137 4.66145 75.0418 4.36978 75.3752 4.07811C75.3127 4.08853 78.4377 3.41666 81.271 4.49999ZM70.9064 10.4062L70.896 10.4167V10.4271C70.8335 10.4896 70.7345 10.5469 70.6356 10.5469C70.4429 10.5469 70.2814 10.3958 70.2814 10.1979C70.2814 10.1771 70.2918 10.1667 70.2918 10.1458C70.3022 10.0677 70.3335 10.0052 70.3908 9.94791C70.4429 9.88541 70.5418 9.84374 70.6356 9.84374C70.8231 9.84374 70.9845 9.99478 70.9845 10.1979C70.9845 10.2656 70.9637 10.3385 70.9064 10.4062ZM71.0939 10.526C72.5106 11.2135 73.8283 12.0937 75.0054 13.1198C73.4272 14.1667 71.1877 14.8698 69.4897 14.1146L69.5106 14.125C69.7397 12.9583 70.0887 11.8229 70.5418 10.75C70.5731 10.7604 70.6043 10.7604 70.6356 10.7604C70.8231 10.7604 70.995 10.6667 71.0939 10.526ZM70.3335 10.6771C69.8908 11.7448 69.547 12.8594 69.3075 14.026C69.0158 13.875 68.745 13.6823 68.495 13.4323C68.0418 12.9792 67.7502 12.4375 67.6304 11.8542C67.8127 11 68.12 10.1667 68.5158 9.40103L68.4741 9.48436C69.0262 9.64582 69.5575 9.84374 70.0887 10.0573C70.0731 10.1042 70.0627 10.1458 70.0627 10.1979C70.0627 10.3958 70.172 10.5781 70.3335 10.6771ZM70.172 9.86457C69.6512 9.64582 69.1147 9.45311 68.5731 9.28124L68.5522 9.33332C69.8179 6.90103 72.0575 4.97395 74.922 4.19791C74.6929 4.39061 74.4689 4.60416 74.2606 4.82291C72.8543 6.21874 71.6772 7.85416 70.8022 9.64582C70.745 9.63541 70.6929 9.62499 70.6356 9.62499C70.4429 9.62499 70.2814 9.72395 70.172 9.86457ZM87.2085 10.5104C87.3179 10.8073 87.4064 11.0989 87.4897 11.401C88.0002 13.2917 87.9325 15.2083 87.4064 16.9583C85.5418 18.6927 83.3127 20.0312 80.8387 20.8437C80.7397 20.6927 80.5679 20.5937 80.3647 20.5937C80.3491 20.5937 80.3387 20.5937 80.3283 20.5937C79.8543 19.2396 79.2241 17.9739 78.4585 16.7969L78.4481 16.8073C78.6616 16.4844 78.8908 16.1719 79.12 15.901C79.172 15.8333 79.2241 15.7604 79.2606 15.6823C79.271 15.6406 79.3231 15.5417 79.4116 15.4219C79.6043 15.5729 79.7762 15.7031 79.9429 15.8021L80.8804 18.151C80.9012 18.2031 80.9377 18.2552 80.9793 18.3021C81.1095 18.4427 81.3335 18.4427 81.4741 18.3021L83.9429 15.8333C84.0314 15.75 84.0731 15.6198 84.0418 15.4896L83.5835 13.8021C84.1356 13.4114 85.7189 12.2344 87.2085 10.5104ZM80.7189 21.1562C80.7189 21.3489 80.5575 21.5 80.3647 21.5C80.1356 21.5 79.995 21.2969 80.0262 21.1042V21.0937C80.0575 20.9167 80.1981 20.8125 80.3647 20.8125H80.396C80.5783 20.8229 80.7189 20.9844 80.7189 21.1562ZM80.9272 21.0469C83.2918 20.2604 85.4481 19.0052 87.2762 17.3698C86.2658 20.2708 83.9741 22.6823 80.9272 23.7187L81.1095 23.6562C81.0002 22.9739 80.8491 22.3021 80.6564 21.6406C80.8283 21.5469 80.9377 21.3594 80.9377 21.1562C80.9377 21.1146 80.9272 21.0781 80.9272 21.0469ZM80.4481 21.7187C80.646 22.3698 80.797 23.0469 80.9012 23.7292C80.5679 23.8385 80.2345 23.9375 79.8856 24.0208C79.271 23.9062 78.6981 23.6354 78.2293 23.1667C77.8439 22.7812 77.5835 22.3229 77.422 21.8281C78.2397 21.7292 79.0522 21.5781 79.8439 21.375C79.9272 21.5781 80.1356 21.7187 80.3647 21.7187C80.396 21.7187 80.4272 21.7187 80.4481 21.7187ZM79.8022 21.1562C79.0106 21.3594 78.1877 21.526 77.3543 21.6198H77.3647C76.9637 20.0729 77.5627 18.2239 78.4377 16.8281C78.4064 16.8854 78.37 16.9375 78.3387 16.9896C79.0627 18.1406 79.6616 19.3594 80.1147 20.6458C79.9272 20.7448 79.8022 20.9271 79.8022 21.1562Z" fill="#267DFF"/>
<mask id="mask0_65_668" style="mask-type:luminance" maskUnits="userSpaceOnUse" x="63" y="0" width="29" height="28">
<path d="M63.9585 0.333374H91.3335V27.6875H63.9585V0.333374Z" fill="white"/>
</mask>
<g mask="url(#mask0_65_668)">
<path fill-rule="evenodd" clip-rule="evenodd" d="M82.2762 3.68754C82.2137 3.65629 82.146 3.63546 82.0835 3.599C79.7345 2.59379 77.1408 2.4115 74.672 3.07296C70.8543 4.099 68.021 6.94275 66.8387 10.4375C66.5366 11.6615 66.995 13.0313 67.9429 13.9844C68.745 14.7761 69.7606 15.1615 70.8752 15.198H70.896C70.9845 15.2084 71.0731 15.2084 71.146 15.2084H71.1772C73.245 15.1615 75.1616 14.1355 76.6408 12.7605H76.6512L76.6616 12.75C76.9897 13.1407 77.3752 13.5625 77.7762 13.9636C78.1668 14.3542 78.5679 14.7188 78.9429 15.0469L78.9325 15.0677C77.2554 16.6563 76.146 19.1146 76.5314 21.4375C77.1043 24.6927 80.2866 25.625 83.2918 23.8907L83.3283 23.8698C84.3439 23.2865 85.1877 22.5938 85.9741 21.7396H85.9845C87.1564 20.4636 88.0314 18.9063 88.5158 17.2396L88.5314 17.2188C89.2554 14.7552 89.1043 12.1146 88.1304 9.73442C88.0939 9.65629 88.0627 9.57296 88.0314 9.49483C88.5627 8.77087 89.0262 8.01567 89.4168 7.20317C90.5835 9.21358 91.2554 11.5521 91.2554 14.0521C91.2554 21.5886 85.1564 27.6875 77.6147 27.6875C70.0887 27.6875 63.9741 21.5886 63.9741 14.0521C63.9741 6.52087 70.0887 0.411499 77.6147 0.411499C80.1564 0.411499 82.5366 1.10421 84.5679 2.31254C83.7606 2.69275 83.0002 3.15629 82.2762 3.68754ZM84.4064 7.33337C84.8283 7.74483 84.8283 8.41671 84.4064 8.82296C83.995 9.23441 83.3283 9.23441 82.9168 8.82296C82.5054 8.41671 82.5054 7.74483 82.9168 7.33337C83.3283 6.92192 83.995 6.92192 84.4064 7.33337ZM74.3283 10.3855L76.3179 11.1823C76.3804 11.2136 76.4481 11.2709 76.4897 11.3334C76.7814 11.8542 77.5054 12.6771 78.2866 13.4532C79.0627 14.2344 79.8856 14.9584 80.4064 15.25C80.4689 15.2917 80.5262 15.349 80.5575 15.4219L81.3595 17.4115L83.2918 15.4792L82.8387 13.7448C82.797 13.6042 82.8491 13.4427 82.9793 13.3594C82.9897 13.349 86.9064 10.7709 88.7137 7.02087C89.0783 6.26046 89.3491 5.46358 89.4897 4.61983C89.62 3.85942 89.6304 3.07296 89.4897 2.26046C88.6825 2.10942 87.8804 2.11983 87.1252 2.25004C86.2918 2.39067 85.4793 2.67192 84.7189 3.02608C81.1304 4.76046 78.6095 8.43754 78.4064 8.73962C78.3179 8.88025 78.1564 8.95317 77.995 8.9115L76.271 8.44796L74.3283 10.3855ZM84.9064 6.83337C85.5991 7.51567 85.5991 8.63025 84.9064 9.32296C84.2241 10.0052 83.1095 10.0052 82.4168 9.32296C81.7345 8.63025 81.7345 7.51567 82.4168 6.83337C83.1095 6.15108 84.2241 6.15108 84.9064 6.83337Z" fill="black"/>
</g>
<path fill-rule="evenodd" clip-rule="evenodd" d="M74.3281 10.3854L76.3177 11.1823C76.349 11.1927 76.3698 11.2136 76.401 11.2396L78.3073 8.84898C78.2187 8.91148 78.1146 8.94273 77.9948 8.91148L76.2708 8.44794L74.3281 10.3854ZM80.4896 15.3281C80.526 15.3594 80.5469 15.3906 80.5573 15.4219L81.3594 17.4115L83.2917 15.4792L82.8385 13.7448C82.7969 13.6302 82.8385 13.4896 82.9375 13.3906L80.4896 15.3281Z" fill="black"/>
<g filter="url(#filter0_d_65_668)">
<path d="M21.2988 41.2279C19.7103 40.8113 18.2467 40.655 16.8822 40.655C9.98112 40.655 5.4655 44.3425 5.4655 52.0665V56.5509H3.33529C2.48112 56.5509 2.0332 57.0248 2.0332 57.8529V61.9207C2.0332 62.78 2.48112 63.2279 3.33529 63.2279H5.4655V88.9154C5.4655 89.7748 5.94466 90.2175 6.77279 90.2175H12.3665C13.2259 90.2175 13.6686 89.7748 13.6686 88.9154V63.2279H18.3457C19.1686 63.2279 19.6478 62.78 19.6478 61.9207V57.8529C19.6478 57.0248 19.1686 56.5509 18.3457 56.5509H13.6686V51.3998C13.6686 48.504 15.2572 47.2332 17.6113 47.2332C18.2467 47.2332 18.9811 47.3321 19.7728 47.5821C20.5384 47.7748 21.0749 47.4571 21.2988 46.6602L22.1582 42.8477C22.3509 42.0196 22.0957 41.4779 21.2988 41.2279Z" fill="black"/>
</g>
<g filter="url(#filter1_d_65_668)">
<path d="M46.544 41.3843C45.8096 39.7332 44.445 39.7332 43.6794 41.3843L22.6325 88.6916C22.2211 89.6134 22.6325 90.2176 23.5909 90.2176H30.6169C31.3148 90.2176 31.8565 89.8999 32.1065 89.202L34.8721 82.3322H55.3825L58.1482 89.202C58.4034 89.8999 58.9398 90.2176 59.643 90.2176H66.6325C67.6221 90.2176 68.0023 89.6134 67.6221 88.6916L46.544 41.3843ZM45.143 56.9312L52.4867 75.1812H37.768L45.143 56.9312Z" fill="black"/>
</g>
<g filter="url(#filter2_d_65_668)">
<path d="M81.1644 90.2176C82.0238 90.2176 82.4665 89.7749 82.4665 88.9155V42.6864C82.4665 41.8322 82.0238 41.3843 81.1644 41.3843H74.8363C73.9769 41.3843 73.5342 41.8322 73.5342 42.6864V88.9155C73.5342 89.7749 73.9769 90.2176 74.8363 90.2176H81.1644Z" fill="black"/>
</g>
<path d="M93.4481 29.1354H209.469C210.969 29.1354 212.406 29.7291 213.464 30.7864C214.521 31.8437 215.115 33.276 215.115 34.7708V98.6614C215.115 100.156 214.521 101.594 213.464 102.651C212.406 103.703 210.969 104.302 209.469 104.302H93.4481C90.3283 104.302 87.8022 101.776 87.8022 98.6614V34.7708C87.8022 31.6614 90.3283 29.1354 93.4481 29.1354Z" fill="url(#paint0_linear_65_668)"/>
<g filter="url(#filter3_d_65_668)">
<path d="M106.386 87.8374C107.729 87.8374 109.182 87.7541 110.74 87.2176C111.386 86.978 111.63 86.4364 111.412 85.7957L110.474 82.4103C110.255 81.7384 109.802 81.4937 109.073 81.7072C108.401 81.9259 107.729 82.0041 107.219 82.0041C105.474 82.0041 104.375 81.0353 104.375 78.7541V47.0457C104.375 46.3218 103.995 45.9468 103.271 45.9468H98.5418C97.8179 45.9468 97.4429 46.3218 97.4429 47.0457V79.5614C97.4429 84.9312 101.12 87.8374 106.386 87.8374Z" fill="white"/>
</g>
<g filter="url(#filter4_d_65_668)">
<path d="M129.439 58.1707C121.325 58.1707 115.194 64.004 115.194 73.004C115.194 82.1134 121.752 87.8373 129.736 87.8373C134.059 87.8373 138.278 86.0092 141.45 82.6759C142.012 82.1134 142.012 81.5769 141.476 81.1707L138.84 78.2696C138.33 77.8686 137.929 77.8946 137.418 78.379C135.293 80.5561 132.554 81.7071 129.924 81.7071C125.783 81.7071 122.158 78.9415 121.97 73.9727H142.2C142.981 73.9727 143.382 73.7019 143.382 72.7332C143.382 64.004 137.554 58.1707 129.439 58.1707ZM129.575 63.8946C132.502 63.8946 135.351 65.4779 136.184 69.1082H122.45C123.47 65.4519 126.726 63.8946 129.575 63.8946Z" fill="white"/>
</g>
<g filter="url(#filter5_d_65_668)">
<path d="M160.197 58.1707C157.051 58.1707 153.666 58.7644 150.468 59.8113C149.796 60.0509 149.53 60.5092 149.77 61.2071L150.9 64.754C151.113 65.4519 151.598 65.6394 152.296 65.3998C154.77 64.4832 157.348 63.8946 159.577 63.8946C162.91 63.8946 165.436 65.2123 165.436 68.8946V70.6915C163.395 70.1811 161.379 69.9154 159.468 69.9154C153.077 69.9154 148.103 72.9779 148.103 79.1029C148.103 85.0144 152.619 87.8373 157.671 87.8373C160.733 87.8373 164.145 86.8165 166.431 83.7227L167.103 86.2488C167.233 86.9207 167.666 87.2175 168.311 87.2175H171.264C171.994 87.2175 172.369 86.8425 172.369 86.1134V68.5977C172.369 60.9936 166.884 58.1707 160.197 58.1707ZM159.337 82.7852C157.025 82.7852 155.035 81.6029 155.035 78.9936C155.035 75.9884 157.645 74.8061 161.082 74.8061C162.478 74.8061 163.931 74.9936 165.436 75.3425V76.5509C165.436 81.2279 161.889 82.7852 159.337 82.7852Z" fill="white"/>
</g>
<g filter="url(#filter6_d_65_668)">
<path d="M194.851 58.1707C191.679 58.1707 188.268 59.405 185.419 62.2019L184.773 59.7279C184.612 59.0561 184.185 58.7644 183.565 58.7644H180.58C179.882 58.7644 179.481 59.1654 179.481 59.8634V86.1134C179.481 86.8425 179.882 87.2175 180.58 87.2175H185.31C186.039 87.2175 186.414 86.8425 186.414 86.1134V70.8009C186.414 66.7436 189.237 64.2696 192.726 64.2696C196.299 64.2696 198.45 66.905 198.45 70.6394V86.1134C198.45 86.8425 198.825 87.2175 199.554 87.2175H204.284C204.981 87.2175 205.382 86.8425 205.382 86.1134V69.6446C205.382 64.0561 202.617 58.1707 194.851 58.1707Z" fill="white"/>
</g>
<defs>
<filter id="filter0_d_65_668" x="0.0332031" y="40.655" width="24.1865" height="53.5625" filterUnits="userSpaceOnUse" color-interpolation-filters="sRGB">
<feFlood flood-opacity="0" result="BackgroundImageFix"/>
<feColorMatrix in="SourceAlpha" type="matrix" values="0 0 0 0 0 0 0 0 0 0 0 0 0 0 0 0 0 0 127 0" result="hardAlpha"/>
<feOffset dy="2"/>
<feGaussianBlur stdDeviation="1"/>
<feComposite in2="hardAlpha" operator="out"/>
<feColorMatrix type="matrix" values="0 0 0 0 0 0 0 0 0 0 0 0 0 0 0 0 0 0 0.15 0"/>
<feBlend mode="normal" in2="BackgroundImageFix" result="effect1_dropShadow_65_668"/>
<feBlend mode="normal" in="SourceGraphic" in2="effect1_dropShadow_65_668" result="shape"/>
</filter>
<filter id="filter1_d_65_668" x="20.4736" y="40.146" width="49.2935" height="54.0717" filterUnits="userSpaceOnUse" color-interpolation-filters="sRGB">
<feFlood flood-opacity="0" result="BackgroundImageFix"/>
<feColorMatrix in="SourceAlpha" type="matrix" values="0 0 0 0 0 0 0 0 0 0 0 0 0 0 0 0 0 0 127 0" result="hardAlpha"/>
<feOffset dy="2"/>
<feGaussianBlur stdDeviation="1"/>
<feComposite in2="hardAlpha" operator="out"/>
<feColorMatrix type="matrix" values="0 0 0 0 0 0 0 0 0 0 0 0 0 0 0 0 0 0 0.15 0"/>
<feBlend mode="normal" in2="BackgroundImageFix" result="effect1_dropShadow_65_668"/>
<feBlend mode="normal" in="SourceGraphic" in2="effect1_dropShadow_65_668" result="shape"/>
</filter>
<filter id="filter2_d_65_668" x="71.5342" y="41.3843" width="12.9321" height="52.8334" filterUnits="userSpaceOnUse" color-interpolation-filters="sRGB">
<feFlood flood-opacity="0" result="BackgroundImageFix"/>
<feColorMatrix in="SourceAlpha" type="matrix" values="0 0 0 0 0 0 0 0 0 0 0 0 0 0 0 0 0 0 127 0" result="hardAlpha"/>
<feOffset dy="2"/>
<feGaussianBlur stdDeviation="1"/>
<feComposite in2="hardAlpha" operator="out"/>
<feColorMatrix type="matrix" values="0 0 0 0 0 0 0 0 0 0 0 0 0 0 0 0 0 0 0.15 0"/>
<feBlend mode="normal" in2="BackgroundImageFix" result="effect1_dropShadow_65_668"/>
<feBlend mode="normal" in="SourceGraphic" in2="effect1_dropShadow_65_668" result="shape"/>
</filter>
<filter id="filter3_d_65_668" x="95.4429" y="45.9468" width="18.0469" height="45.8906" filterUnits="userSpaceOnUse" color-interpolation-filters="sRGB">
<feFlood flood-opacity="0" result="BackgroundImageFix"/>
<feColorMatrix in="SourceAlpha" type="matrix" values="0 0 0 0 0 0 0 0 0 0 0 0 0 0 0 0 0 0 127 0" result="hardAlpha"/>
<feOffset dy="2"/>
<feGaussianBlur stdDeviation="1"/>
<feComposite in2="hardAlpha" operator="out"/>
<feColorMatrix type="matrix" values="0 0 0 0 0 0 0 0 0 0 0 0 0 0 0 0 0 0 0.15 0"/>
<feBlend mode="normal" in2="BackgroundImageFix" result="effect1_dropShadow_65_668"/>
<feBlend mode="normal" in="SourceGraphic" in2="effect1_dropShadow_65_668" result="shape"/>
</filter>
<filter id="filter4_d_65_668" x="113.194" y="58.1707" width="32.1875" height="33.6666" filterUnits="userSpaceOnUse" color-interpolation-filters="sRGB">
<feFlood flood-opacity="0" result="BackgroundImageFix"/>
<feColorMatrix in="SourceAlpha" type="matrix" values="0 0 0 0 0 0 0 0 0 0 0 0 0 0 0 0 0 0 127 0" result="hardAlpha"/>
<feOffset dy="2"/>
<feGaussianBlur stdDeviation="1"/>
<feComposite in2="hardAlpha" operator="out"/>
<feColorMatrix type="matrix" values="0 0 0 0 0 0 0 0 0 0 0 0 0 0 0 0 0 0 0.15 0"/>
<feBlend mode="normal" in2="BackgroundImageFix" result="effect1_dropShadow_65_668"/>
<feBlend mode="normal" in="SourceGraphic" in2="effect1_dropShadow_65_668" result="shape"/>
</filter>
<filter id="filter5_d_65_668" x="146.103" y="58.1707" width="28.2656" height="33.6666" filterUnits="userSpaceOnUse" color-interpolation-filters="sRGB">
<feFlood flood-opacity="0" result="BackgroundImageFix"/>
<feColorMatrix in="SourceAlpha" type="matrix" values="0 0 0 0 0 0 0 0 0 0 0 0 0 0 0 0 0 0 127 0" result="hardAlpha"/>
<feOffset dy="2"/>
<feGaussianBlur stdDeviation="1"/>
<feComposite in2="hardAlpha" operator="out"/>
<feColorMatrix type="matrix" values="0 0 0 0 0 0 0 0 0 0 0 0 0 0 0 0 0 0 0.15 0"/>
<feBlend mode="normal" in2="BackgroundImageFix" result="effect1_dropShadow_65_668"/>
<feBlend mode="normal" in="SourceGraphic" in2="effect1_dropShadow_65_668" result="shape"/>
</filter>
<filter id="filter6_d_65_668" x="177.481" y="58.1707" width="29.9009" height="33.0469" filterUnits="userSpaceOnUse" color-interpolation-filters="sRGB">
<feFlood flood-opacity="0" result="BackgroundImageFix"/>
<feColorMatrix in="SourceAlpha" type="matrix" values="0 0 0 0 0 0 0 0 0 0 0 0 0 0 0 0 0 0 127 0" result="hardAlpha"/>
<feOffset dy="2"/>
<feGaussianBlur stdDeviation="1"/>
<feComposite in2="hardAlpha" operator="out"/>
<feColorMatrix type="matrix" values="0 0 0 0 0 0 0 0 0 0 0 0 0 0 0 0 0 0 0.15 0"/>
<feBlend mode="normal" in2="BackgroundImageFix" result="effect1_dropShadow_65_668"/>
<feBlend mode="normal" in="SourceGraphic" in2="effect1_dropShadow_65_668" result="shape"/>
</filter>
<linearGradient id="paint0_linear_65_668" x1="151" y1="29" x2="151.459" y2="104.302" gradientUnits="userSpaceOnUse">
<stop stop-color="#267DFF"/>
<stop offset="1" stop-color="#2262DD"/>
</linearGradient>
</defs>
</svg>
